# xmcd CD database file
#
# Track frame offsets:
#	150
#	11518
#	25798
#	37700
#	49391
#	62663
#	75247
#	88568
#	98439
#	113546
#	124611
#	136558
#	150175
#	162185
#	179153
#	191059
#	205094
#	218889
#	229273
#	244894
#
# Disc length: 3416 seconds
#
# Revision: 0
# Processed by: cddbd v1.4PL0 Copyright (c) Steve Scherf et al.
# Submitted via: CDex 1.40Release
#
DISCID=ef0d5614
DTITLE=Conway Twitty - Famous Country Music Makers: Conway Twitty
DYEAR=2000
DGENRE=Country
TTITLE0=Hello Darlin'
TTITLE1=You've Never Been This Far Before
TTITLE2=(Lying Here With) Linda On My Mind
TTITLE3=To See An Angel Cry
TTITLE4=Danny Boy
TTITLE5=This Time I've Hurt Her More Than She Loves Me
TTITLE6=After All the Good Is Done
TTITLE7=I'll Try
TTITLE8=(Lost Her Love) On Our Last Date
TTITLE9=As Soon As I Hang Up the Phone
TTITLE10=I Can't See Me Without You
TTITLE11=The Games That Daddy's Play
TTITLE12=She Needs Someone To Hold Her (When She Cries)
TTITLE13=Don't Cry Joni
TTITLE14=I'm Not Through Loving You Yet
TTITLE15=Fifteen Years Ago
TTITLE16=Baby's Gone
TTITLE17=(I Can't Believe) She Gives It All To Me
TTITLE18=Touch The Hand
TTITLE19=It's Only Make Believe
EXTD=YEAR: 2000 ID3G: 2
EXTT0=
EXTT1=
EXTT2=
EXTT3=
EXTT4=
EXTT5=
EXTT6=
EXTT7=
EXTT8=
EXTT9=
EXTT10=
EXTT11=
EXTT12=
EXTT13=
EXTT14=
EXTT15=
EXTT16=
EXTT17=
EXTT18=
EXTT19=
PLAYORDER=
